<svg width="24" height="10" viewBox="0 0 24 10" fill="none" xmlns="http://www.w3.org/2000/svg">
<path fill-rule="evenodd" clip-rule="evenodd" d="M4.38528 1.28925C4.104 1.62702 3.65395 1.89344 3.2039 1.85538C3.14764 1.39867 3.36798 0.913416 3.62582 0.613702C3.9071 0.266413 4.39934 0.0190295 4.79783 0C4.84471 0.475738 4.66187 0.941961 4.38528 1.28925ZM4.7931 1.94576C4.39661 1.92261 4.03484 2.06677 3.74262 2.18321C3.55457 2.25814 3.39533 2.32159 3.27418 2.32159C3.13823 2.32159 2.97241 2.25475 2.78624 2.17969C2.54229 2.08135 2.26338 1.96891 1.97091 1.97431C1.30052 1.98382 0.677014 2.36917 0.334788 2.98287C-0.368416 4.21027 0.151955 6.02759 0.831719 7.02664C1.16457 7.5214 1.56305 8.06374 2.08811 8.04471C2.3191 8.03587 2.48527 7.96432 2.65723 7.89027C2.85521 7.80502 3.06087 7.71645 3.38201 7.71645C3.692 7.71645 3.88867 7.80271 4.07747 7.88551C4.25698 7.96423 4.42936 8.03984 4.68528 8.0352C5.22909 8.02568 5.57131 7.54043 5.90416 7.04567C6.26336 6.51465 6.42121 5.99641 6.44517 5.91775L6.44798 5.90865C6.4474 5.90807 6.44296 5.90601 6.43513 5.90237C6.31506 5.84659 5.39728 5.42022 5.38848 4.27688C5.37964 3.31721 6.11644 2.83098 6.23242 2.75444C6.23947 2.74979 6.24424 2.74664 6.24639 2.745C5.77759 2.04091 5.04626 1.96479 4.7931 1.94576ZM8.55763 7.98287V0.566124H11.3001C12.7159 0.566124 13.7051 1.55566 13.7051 3.0019C13.7051 4.44814 12.6972 5.44719 11.2626 5.44719H9.69213V7.98287H8.55763ZM9.69203 1.53663H11C11.9845 1.53663 12.547 2.06945 12.547 3.00666C12.547 3.94386 11.9845 4.48144 10.9953 4.48144H9.69203V1.53663ZM17.4509 7.09324C17.1508 7.67364 16.4898 8.03996 15.7772 8.03996C14.7224 8.03996 13.9864 7.40247 13.9864 6.44148C13.9864 5.49001 14.699 4.94291 16.0163 4.86203L17.4321 4.7764V4.36727C17.4321 3.76308 17.043 3.43482 16.3492 3.43482C15.7772 3.43482 15.36 3.73454 15.2756 4.19125H14.2536C14.2864 3.23026 15.1772 2.53092 16.382 2.53092C17.6806 2.53092 18.5244 3.22074 18.5244 4.29115V7.98287H17.4743V7.09324H17.4509ZM16.0819 7.15985C15.4771 7.15985 15.0927 6.86489 15.0927 6.41294C15.0927 5.94672 15.4631 5.67555 16.171 5.63273L17.432 5.55186V5.9705C17.432 6.66508 16.8507 7.15985 16.0819 7.15985ZM22.0076 8.27307C21.5528 9.57184 21.0325 10 19.9261 10C19.8417 10 19.5604 9.99049 19.4948 9.97146V9.08183C19.5651 9.09134 19.7386 9.10086 19.8277 9.10086C20.3293 9.10086 20.6106 8.88678 20.784 8.33016L20.8871 8.0019L18.9651 2.60229H20.1511L21.4872 6.98383H21.5107L22.8467 2.60229H24L22.0076 8.27307Z" fill="#2F3250"/>
</svg>
