<svg width="24" height="10" viewBox="0 0 24 10" fill="none" xmlns="http://www.w3.org/2000/svg">
<path fill-rule="evenodd" clip-rule="evenodd" d="M11.0689 7.82201V4.88736H12.5657C13.1791 4.88736 13.6968 4.67939 14.1188 4.26924L14.2201 4.16525C14.991 3.31605 14.9404 1.99315 14.1188 1.20749C13.708 0.79156 13.1453 0.566262 12.5657 0.577816H10.163V7.82201H11.0689ZM11.069 3.99756V1.46729H12.5885C12.915 1.46729 13.2245 1.59438 13.4552 1.82545C13.9449 2.31071 13.9561 3.11947 13.4834 3.62206C13.2526 3.87046 12.9262 4.00911 12.5885 3.99756H11.069ZM18.4461 3.25242C18.0578 2.88847 17.5289 2.70361 16.8593 2.70361C15.9983 2.70361 15.3512 3.02712 14.9235 3.66835L15.7226 4.18249C16.0152 3.74345 16.4147 3.52393 16.9212 3.52393C17.2419 3.52393 17.5514 3.64524 17.7934 3.86476C18.0297 4.07273 18.1648 4.37313 18.1648 4.69086V4.9046C17.8159 4.70819 17.377 4.6042 16.8368 4.6042C16.2065 4.6042 15.7001 4.7544 15.3231 5.06058C14.9461 5.36675 14.7547 5.77113 14.7547 6.28527C14.7435 6.7532 14.9404 7.19802 15.2893 7.49842C15.6438 7.82192 16.094 7.98368 16.6229 7.98368C17.2475 7.98368 17.7427 7.70061 18.1197 7.13447H18.1591V7.82192H19.0257V4.76596C19.0257 4.12472 18.8344 3.61636 18.4461 3.25242ZM15.9872 6.90916C15.8015 6.77052 15.689 6.54522 15.689 6.30259C15.689 6.03108 15.8128 5.80578 16.0548 5.6267C16.3024 5.44762 16.612 5.35519 16.9778 5.35519C17.4843 5.34941 17.8783 5.46495 18.1597 5.69602C18.1597 6.08885 18.0077 6.42968 17.7094 6.71853C17.4393 6.99582 17.0735 7.15179 16.6907 7.15179C16.4375 7.15757 16.1899 7.07092 15.9872 6.90916ZM20.9727 9.99991L24 2.86548H23.0153L21.6141 6.42403H21.5973L20.1624 2.86548H19.1776L21.164 7.5043L20.0386 9.99991H20.9727Z" fill="#2F3250"/>
<path d="M7.94118 4.25211C7.94118 3.96905 7.91867 3.68598 7.87366 3.40869H4.05286V5.00889H6.2418C6.15176 5.52303 5.85916 5.98518 5.4315 6.27402V7.31386H6.73698C7.50227 6.59175 7.94118 5.52303 7.94118 4.25211Z" fill="#4285F4"/>
<path d="M4.05304 8.31893C5.1447 8.31893 6.06754 7.94921 6.73717 7.31375L5.43168 6.27391C5.06592 6.5281 4.59887 6.67252 4.05304 6.67252C2.99514 6.67252 2.10044 5.93886 1.77969 4.95679H0.434814V6.03129C1.12132 7.43507 2.52247 8.31893 4.05304 8.31893Z" fill="#34A853"/>
<path d="M1.77985 4.95684C1.61101 4.4427 1.61101 3.88234 1.77985 3.36242V2.2937H0.434763C-0.144921 3.46641 -0.144921 4.85286 0.434763 6.02556L1.77985 4.95684Z" fill="#FBBC04"/>
<path d="M4.05304 1.64666C4.63263 1.63511 5.18971 1.8604 5.60612 2.27056L6.7653 1.08053C6.02815 0.375748 5.06029 -0.0113023 4.05304 0.000251415C2.52247 0.000251415 1.12132 0.88989 0.434814 2.29367L1.77969 3.36817C2.10044 2.38032 2.99514 1.64666 4.05304 1.64666Z" fill="#EA4335"/>
</svg>
