<svg width="18" height="16" viewBox="0 0 18 16" fill="none" xmlns="http://www.w3.org/2000/svg">
<path d="M9 1.3843C6.87976 -0.52839 3.61913 -0.459003 1.58162 1.59246C-0.527208 3.71573 -0.527208 7.15824 1.58162 9.28151L7.72721 15.4692C8.43015 16.1769 9.56985 16.1769 10.2728 15.4692L16.4184 9.28151C18.5272 7.15824 18.5272 3.71573 16.4184 1.59246C14.3809 -0.459003 11.1202 -0.52839 9 1.3843ZM7.94558 2.87396L8.3636 3.29485C8.71508 3.64873 9.28492 3.64873 9.6364 3.29485L10.0544 2.87396C11.4603 1.45845 13.7397 1.45845 15.1456 2.87396C16.5515 4.28948 16.5515 6.58448 15.1456 8L9 14.1877L2.85442 8C1.44853 6.58448 1.44853 4.28948 2.85442 2.87396C4.2603 1.45845 6.5397 1.45845 7.94558 2.87396Z" fill="#2F3250"/>
</svg>
