<svg width="20" height="12" viewBox="0 0 20 12" fill="none" xmlns="http://www.w3.org/2000/svg">
<path fill-rule="evenodd" clip-rule="evenodd" d="M10 10.5667C8.94084 11.4604 7.56691 12 6.06557 12C2.71565 12 0 9.31371 0 6C0 2.68629 2.71565 0 6.06557 0C7.56691 0 8.94084 0.539558 10 1.43334C11.0592 0.539558 12.4331 0 13.9345 0C17.2844 0 20 2.68629 20 6C20 9.31371 17.2844 12 13.9345 12C12.4331 12 11.0592 11.4604 10 10.5667Z" fill="#ED0006"/>
<path fill-rule="evenodd" clip-rule="evenodd" d="M10 10.5667C11.3042 9.46615 12.1311 7.82861 12.1311 6C12.1311 4.17139 11.3042 2.53385 10 1.43334C11.0592 0.539558 12.4331 0 13.9344 0C17.2844 0 20 2.68629 20 6C20 9.31371 17.2844 12 13.9344 12C12.4331 12 11.0592 11.4604 10 10.5667Z" fill="#F9A000"/>
<path fill-rule="evenodd" clip-rule="evenodd" d="M10 10.5667C11.3042 9.46616 12.1311 7.82862 12.1311 6.00001C12.1311 4.17141 11.3042 2.53386 10 1.43335C8.69586 2.53386 7.8689 4.17141 7.8689 6.00001C7.8689 7.82862 8.69586 9.46616 10 10.5667Z" fill="#FF5E00"/>
</svg>
