<svg width="10" height="12" viewBox="0 0 10 12" fill="none" xmlns="http://www.w3.org/2000/svg">
<path d="M5 0C2.25 0 0 2.16 0 4.8C0 8.04 4.375 11.7 4.5625 11.88C4.6875 11.94 4.875 12 5 12C5.125 12 5.3125 11.94 5.4375 11.88C5.625 11.7 10 8.04 10 4.8C10 2.16 7.75 0 5 0ZM5 10.62C3.6875 9.42 1.25 6.84 1.25 4.8C1.25 2.82 2.9375 1.2 5 1.2C7.0625 1.2 8.75 2.82 8.75 4.8C8.75 6.78 6.3125 9.42 5 10.62ZM5 2.4C3.625 2.4 2.5 3.48 2.5 4.8C2.5 6.12 3.625 7.2 5 7.2C6.375 7.2 7.5 6.12 7.5 4.8C7.5 3.48 6.375 2.4 5 2.4ZM5 6C4.3125 6 3.75 5.46 3.75 4.8C3.75 4.14 4.3125 3.6 5 3.6C5.6875 3.6 6.25 4.14 6.25 4.8C6.25 5.46 5.6875 6 5 6Z" fill="#2F3250"/>
</svg>
