<svg width="16" height="18" viewBox="0 0 16 18" fill="none" xmlns="http://www.w3.org/2000/svg">
<path d="M8 1.8C6.03632 1.8 4.44444 3.41177 4.44444 5.4C4.44444 7.38822 6.03632 9 8 9C9.96368 9 11.5556 7.38822 11.5556 5.4C11.5556 3.41177 9.96368 1.8 8 1.8ZM2.66667 5.4C2.66667 2.41766 5.05448 0 8 0C10.9455 0 13.3333 2.41766 13.3333 5.4C13.3333 8.38234 10.9455 10.8 8 10.8C5.05448 10.8 2.66667 8.38234 2.66667 5.4ZM4.44445 14.4C2.97168 14.4 1.77778 15.6088 1.77778 17.1C1.77778 17.5971 1.37981 18 0.888889 18C0.397969 18 0 17.5971 0 17.1C0 14.6147 1.98985 12.6 4.44445 12.6H11.5556C14.0102 12.6 16 14.6147 16 17.1C16 17.5971 15.602 18 15.1111 18C14.6202 18 14.2222 17.5971 14.2222 17.1C14.2222 15.6088 13.0283 14.4 11.5556 14.4H4.44445Z" fill="#2F3250"/>
</svg>
