<svg width="24" height="8" viewBox="0 0 24 8" fill="none" xmlns="http://www.w3.org/2000/svg">
<path fill-rule="evenodd" clip-rule="evenodd" d="M6.00025 7.93769H3.9232L2.36567 1.73152C2.29174 1.44603 2.13477 1.19365 1.90388 1.0747C1.32765 0.775767 0.692687 0.537864 0 0.417878V0.17894H3.34596C3.80775 0.17894 4.1541 0.537864 4.21182 0.954712L5.01996 5.43143L7.09599 0.17894H9.11532L6.00025 7.93769ZM10.2698 7.93769H8.3082L9.92346 0.17894H11.8851L10.2698 7.93769ZM14.4229 2.32835C14.4806 1.91047 14.827 1.67153 15.231 1.67153C15.866 1.61154 16.5577 1.73152 17.1349 2.02942L17.4812 0.358924C16.904 0.119986 16.269 0 15.6928 0C13.7889 0 12.4036 1.0747 12.4036 2.56625C12.4036 3.70095 13.3849 4.29674 14.0776 4.65566C14.827 5.01355 15.1156 5.25249 15.0579 5.61038C15.0579 6.14721 14.4806 6.38615 13.9044 6.38615C13.2117 6.38615 12.519 6.20721 11.8851 5.90828L11.5387 7.57981C12.2314 7.8777 12.9808 7.99769 13.6735 7.99769C15.8083 8.05665 17.1349 6.98298 17.1349 5.37144C17.1349 3.34202 14.4229 3.22307 14.4229 2.32835ZM24 7.93769L22.4425 0.17894H20.7695C20.4231 0.17894 20.0768 0.417878 19.9613 0.775767L17.0772 7.93769H19.0965L19.4996 6.80403H21.9807L22.2116 7.93769H24ZM21.0581 2.26836L21.6343 5.1925H20.0191L21.0581 2.26836Z" fill="#172B85"/>
</svg>
