<svg width="12" height="12" viewBox="0 0 12 12" fill="none" xmlns="http://www.w3.org/2000/svg">
<path d="M12 4.88612C11.9372 4.48534 11.5916 4.21815 11.1204 4.21815C10.9634 4.21815 10.8377 4.21815 10.6806 4.21815C10.3979 4.18475 10.3351 4.28495 10.3351 4.51874C10.3351 5.68769 10.3351 6.82324 10.3351 7.99218C10.3351 8.59336 9.76964 9.22793 9.10995 9.36152C7.03665 9.8625 4.96335 10.3301 2.89005 10.8311C2.67015 10.8979 2.41885 10.8979 2.16754 10.8979C2.0733 10.8979 1.91623 10.8311 1.88482 10.7309C1.8534 10.6641 1.94764 10.5305 2.01047 10.4637C2.10471 10.3969 2.23037 10.3301 2.35602 10.2633C2.73299 10.1297 3.14136 9.99609 3.51832 9.8625C5.05759 9.32812 6.59686 8.79374 8.13613 8.22597C8.82723 7.99218 9.20419 7.49121 9.20419 6.85664C9.2356 4.85273 9.20419 2.81542 9.20419 0.811508C9.20419 0.477523 9.04712 0.210336 8.70157 0.076742C8.29319 -0.0902505 7.91623 0.0433414 7.57068 0.210334C5.37172 1.31248 3.20418 2.41464 1.00523 3.51679C0.376958 3.85077 0 4.31835 0 4.98632C0 6.89003 0 8.79375 0 10.6975C0 10.7977 -7.66933e-06 10.8979 0.031406 10.9647C0.251301 11.5992 0.816754 12 1.57068 12C3.10995 12 4.64921 12 6.18848 12C7.72775 12 9.2356 12 10.7749 12C11.1204 12 11.4031 11.9332 11.6544 11.6994C11.9686 11.4322 11.9686 11.0648 11.9686 10.7309C11.9686 9.08773 12 4.88612 12 4.88612ZM5.59162 4.28495C5.74869 3.85077 6.09424 3.58358 6.59686 3.51679C6.94241 3.48339 7.22513 3.68378 7.28796 4.01776C7.35078 4.51874 6.78534 5.11992 6.18848 5.11992C5.71727 5.11992 5.43455 4.75253 5.59162 4.28495Z" fill="#FD6727"/>
</svg>
